<svg viewBox="0 0 15 15" fill="none" xmlns="http://www.w3.org/2000/svg">
<path fill-rule="evenodd" clip-rule="evenodd" d="M4.54884 3.56512V1.08C3.34814 1.18047 2.55 1.50419 2.02674 2.02674C1.66256 2.39163 1.39465 2.88977 1.23209 3.56512H4.54884ZM5.59535 3.56512H9.40465V1.04651H5.59535V3.56512ZM10.4512 3.56512H13.7679C13.6053 2.88977 13.3374 2.39163 12.9733 2.02674C12.45 1.50419 11.6519 1.18047 10.4512 1.08V3.56512ZM1.06535 10.2426C1.14419 11.5612 1.47419 12.42 2.02674 12.9733C2.59047 13.5363 3.47302 13.8691 4.83488 13.9395C5.01698 13.9486 5.20744 13.9535 5.40698 13.9535H9.59302C9.82116 13.9535 10.0374 13.9472 10.2426 13.9347C11.5612 13.8558 12.42 13.5258 12.9733 12.9733C13.5363 12.4095 13.8691 11.527 13.9395 10.1651C13.9486 9.98302 13.9535 9.79256 13.9535 9.59302V5.40698C13.9535 5.35116 13.9528 5.29674 13.9521 5.24233C13.9493 5.02046 13.9402 4.81047 13.9249 4.61163H1.07512C1.07163 4.65977 1.06814 4.70791 1.06535 4.75744C1.06047 4.83558 1.05698 4.91512 1.05349 4.99605C1.0486 5.1286 1.04651 5.26605 1.04651 5.40698V9.59302C1.04651 9.82116 1.05279 10.0374 1.06535 10.2426ZM0.00348837 9.90349C0.0027907 9.87628 0.00209302 9.84907 0.00209302 9.82186C0.000697674 9.74651 0 9.66977 0 9.59302V5.40698C0 5.33023 0.000697674 5.25419 0.00209302 5.17814C0.00209302 5.15093 0.0027907 5.12372 0.00348837 5.09651C0.00348837 5.09302 0.00348837 5.08953 0.00418605 5.08535C0.0453488 3.44442 0.412326 2.1614 1.28721 1.28721C2.21791 0.355814 3.61116 0 5.40698 0H9.59302C9.66977 0 9.74651 0.000697674 9.82186 0.00209302C9.84907 0.00209302 9.87628 0.0027907 9.90349 0.00348837C9.90698 0.00348837 9.91047 0.00348837 9.91465 0.00418605C11.5556 0.0453488 12.8386 0.412326 13.7128 1.28721C14.6442 2.21791 15 3.61116 15 5.40698V9.59302C15 11.3888 14.6442 12.7821 13.7128 13.7128C12.8386 14.5877 11.5556 14.9547 9.91465 14.9958C9.91047 14.9965 9.90698 14.9965 9.90349 14.9965C9.87628 14.9972 9.84907 14.9979 9.82186 14.9979C9.74651 14.9993 9.66977 15 9.59302 15H5.40698C3.61116 15 2.21791 14.6442 1.28721 13.7128C0.412326 12.8386 0.0453488 11.5556 0.00418605 9.91465C0.00348837 9.91047 0.00348837 9.90698 0.00348837 9.90349Z" fill="#8E95A9"/>
</svg>
